<?xml version="1.0" standalone="no"?>
<!DOCTYPE svg PUBLIC "-//W3C//DTD SVG 20010904//EN"
 "http://www.w3.org/TR/2001/REC-SVG-20010904/DTD/svg10.dtd">
<svg version="1.0" xmlns="http://www.w3.org/2000/svg"
 width="500.000000pt" height="500.000000pt" viewBox="0 0 500.000000 500.000000"
 preserveAspectRatio="xMidYMid meet">

<g transform="translate(0.000000,500.000000) scale(0.100000,-0.100000)"
fill="#000000" stroke="none">
<path d="M2360 4465 c-124 -19 -355 -77 -483 -121 -321 -112 -562 -314 -638
-535 -16 -46 -23 -97 -27 -184 -8 -211 33 -432 128 -675 69 -180 76 -208 90
-395 12 -159 32 -256 67 -335 24 -52 25 -62 20 -200 -5 -156 -24 -259 -63
-349 l-24 -54 -3 -496 c-1 -273 2 -585 7 -693 9 -228 10 -229 114 -268 135
-51 136 -51 1062 -48 845 3 866 3 905 23 22 11 39 25 38 31 -5 28 -28 1222
-28 1439 1 212 4 272 24 395 21 131 23 182 26 530 1 212 5 433 10 491 l8 106
49 18 c54 19 66 34 74 99 4 27 21 67 44 101 l38 57 -14 61 c-60 257 -156 498
-260 643 -121 170 -342 304 -570 345 -155 28 -456 35 -594 14z"/>
</g>
</svg>
