<?xml version="1.0" standalone="no"?>
<!DOCTYPE svg PUBLIC "-//W3C//DTD SVG 20010904//EN"
 "http://www.w3.org/TR/2001/REC-SVG-20010904/DTD/svg10.dtd">
<svg version="1.0" xmlns="http://www.w3.org/2000/svg"
 width="500.000000pt" height="470.000000pt" viewBox="0 0 500.000000 470.000000"
 preserveAspectRatio="xMidYMid meet">

<g transform="translate(0.000000,470.000000) scale(0.100000,-0.100000)"
fill="#000000" stroke="none">
<path d="M2605 4544 c-200 -14 -603 -51 -669 -61 l-38 -6 4 -59 c2 -32 1 -53
-3 -45 -5 8 -10 32 -11 54 l-3 40 -35 -28 c-43 -35 -134 -73 -360 -151 -219
-75 -379 -138 -496 -194 -110 -52 -180 -122 -214 -211 -29 -78 -75 -239 -99
-348 -45 -205 -100 -1240 -68 -1283 10 -13 6 -104 -13 -282 -14 -137 -12 -340
5 -530 28 -318 121 -954 175 -1208 14 -64 22 -67 170 -67 105 0 232 23 263 48
11 9 19 66 31 222 42 554 56 701 81 850 9 54 17 201 21 372 7 275 7 283 -16
353 -19 59 -22 83 -16 147 5 61 3 80 -9 93 -13 14 -14 28 -5 86 5 38 10 171
10 295 l0 227 -36 98 c-62 174 -94 302 -101 411 -5 91 -2 120 32 295 21 106
42 206 48 223 6 16 61 79 122 140 123 123 232 195 356 235 l71 23 36 79 c19
43 37 77 38 75 2 -2 -12 -40 -31 -84 -38 -93 -40 -89 49 -128 105 -46 194 -66
327 -72 258 -12 513 56 692 184 l49 34 84 -27 c103 -32 195 -94 286 -193 50
-54 82 -103 136 -209 131 -255 172 -398 172 -603 0 -85 0 -85 -36 -120 -19
-18 -44 -48 -55 -65 -18 -29 -18 -33 -3 -63 10 -20 14 -46 11 -69 -5 -37 40
-471 69 -657 13 -87 19 -216 13 -295 -8 -119 89 -884 170 -1335 17 -93 42
-253 57 -355 14 -102 27 -186 29 -188 8 -9 172 -21 288 -22 103 0 137 3 137
13 0 6 4 59 10 117 5 58 24 339 41 625 27 448 30 559 26 800 -6 263 -8 286
-33 380 -15 55 -29 120 -31 145 -2 25 -10 95 -18 155 -8 61 -24 191 -35 290
-11 99 -28 258 -40 354 -11 95 -23 255 -26 355 -6 164 -10 192 -40 298 -67
237 -153 437 -211 492 -78 75 -117 88 -663 221 -281 68 -348 89 -394 120 -42
28 -31 28 -301 9z m251 -51 c-8 -16 -32 -45 -54 -65 -46 -42 -189 -121 -267
-149 -78 -27 -285 -44 -378 -29 -75 11 -173 51 -217 88 l-25 21 180 1 c273 0
581 32 676 68 27 11 89 76 89 94 0 6 3 9 6 6 3 -4 -1 -19 -10 -35z"/>
</g>
</svg>
