<?xml version="1.0" standalone="no"?>
<!DOCTYPE svg PUBLIC "-//W3C//DTD SVG 20010904//EN"
 "http://www.w3.org/TR/2001/REC-SVG-20010904/DTD/svg10.dtd">
<svg version="1.0" xmlns="http://www.w3.org/2000/svg"
 width="500.000000pt" height="500.000000pt" viewBox="0 0 500.000000 500.000000"
 preserveAspectRatio="xMidYMid meet">

<g transform="translate(0.000000,500.000000) scale(0.100000,-0.100000)"
fill="#000000" stroke="none">
<path d="M4160 3328 c-185 -81 -288 -119 -380 -143 -110 -27 -130 -36 -130
-53 1 -41 13 -40 155 8 197 67 157 52 358 136 76 32 141 62 143 66 6 9 -14 39
-25 37 -3 -1 -58 -24 -121 -51z"/>
<path d="M4210 3239 c-194 -81 -268 -108 -399 -145 -128 -37 -156 -53 -133
-76 12 -12 125 21 310 91 218 82 322 132 322 152 0 11 -1 19 -2 18 -2 0 -46
-18 -98 -40z"/>
<path d="M701 3206 c-7 -8 -11 -23 -9 -33 4 -22 213 -71 463 -108 201 -30 214
-30 222 -9 10 26 -20 40 -96 48 -139 13 -469 79 -552 111 -9 3 -21 -1 -28 -9z"/>
<path d="M686 3103 c-4 -9 -3 -20 2 -25 14 -14 303 -75 460 -98 154 -22 222
-25 222 -11 0 20 -30 30 -125 41 -132 15 -330 54 -435 85 -101 29 -116 30
-124 8z"/>
</g>
</svg>
